<svg id="visual" viewBox="0 0 900 600" width="900" height="600" xmlns="http://www.w3.org/2000/svg" xmlns:xlink="http://www.w3.org/1999/xlink" version="1.1"><rect x="0" y="0" width="900" height="600" fill="#564256"></rect><path d="M0 253L21.5 247.2C43 241.3 86 229.7 128.8 235.2C171.7 240.7 214.3 263.3 257.2 284.8C300 306.3 343 326.7 385.8 322.3C428.7 318 471.3 289 514.2 277.8C557 266.7 600 273.3 642.8 288.8C685.7 304.3 728.3 328.7 771.2 338.3C814 348 857 343 878.5 340.5L900 338L900 601L878.5 601C857 601 814 601 771.2 601C728.3 601 685.7 601 642.8 601C600 601 557 601 514.2 601C471.3 601 428.7 601 385.8 601C343 601 300 601 257.2 601C214.3 601 171.7 601 128.8 601C86 601 43 601 21.5 601L0 601Z" fill="#fc814a"></path><path d="M0 399L21.5 386.5C43 374 86 349 128.8 328.8C171.7 308.7 214.3 293.3 257.2 304C300 314.7 343 351.3 385.8 366.8C428.7 382.3 471.3 376.7 514.2 368.7C557 360.7 600 350.3 642.8 336.2C685.7 322 728.3 304 771.2 293.7C814 283.3 857 280.7 878.5 279.3L900 278L900 601L878.5 601C857 601 814 601 771.2 601C728.3 601 685.7 601 642.8 601C600 601 557 601 514.2 601C471.3 601 428.7 601 385.8 601C343 601 300 601 257.2 601C214.3 601 171.7 601 128.8 601C86 601 43 601 21.5 601L0 601Z" fill="#f57b4a"></path><path d="M0 376L21.5 383.5C43 391 86 406 128.8 400.8C171.7 395.7 214.3 370.3 257.2 365.8C300 361.3 343 377.7 385.8 396.2C428.7 414.7 471.3 435.3 514.2 436.3C557 437.3 600 418.7 642.8 411.7C685.7 404.7 728.3 409.3 771.2 399.7C814 390 857 366 878.5 354L900 342L900 601L878.5 601C857 601 814 601 771.2 601C728.3 601 685.7 601 642.8 601C600 601 557 601 514.2 601C471.3 601 428.7 601 385.8 601C343 601 300 601 257.2 601C214.3 601 171.7 601 128.8 601C86 601 43 601 21.5 601L0 601Z" fill="#ed7649"></path><path d="M0 474L21.5 470.7C43 467.3 86 460.7 128.8 454.2C171.7 447.7 214.3 441.3 257.2 434.5C300 427.7 343 420.3 385.8 421.8C428.7 423.3 471.3 433.7 514.2 442.2C557 450.7 600 457.3 642.8 451.8C685.7 446.3 728.3 428.7 771.2 432.3C814 436 857 461 878.5 473.5L900 486L900 601L878.5 601C857 601 814 601 771.2 601C728.3 601 685.7 601 642.8 601C600 601 557 601 514.2 601C471.3 601 428.7 601 385.8 601C343 601 300 601 257.2 601C214.3 601 171.7 601 128.8 601C86 601 43 601 21.5 601L0 601Z" fill="#e67049"></path><path d="M0 547L21.5 537.7C43 528.3 86 509.7 128.8 500.7C171.7 491.7 214.3 492.3 257.2 493.7C300 495 343 497 385.8 500.3C428.7 503.7 471.3 508.3 514.2 509.2C557 510 600 507 642.8 503.2C685.7 499.3 728.3 494.7 771.2 495.8C814 497 857 504 878.5 507.5L900 511L900 601L878.5 601C857 601 814 601 771.2 601C728.3 601 685.7 601 642.8 601C600 601 557 601 514.2 601C471.3 601 428.7 601 385.8 601C343 601 300 601 257.2 601C214.3 601 171.7 601 128.8 601C86 601 43 601 21.5 601L0 601Z" fill="#de6b48"></path></svg>