<svg id="visual" viewBox="0 0 900 600" width="900" height="600" xmlns="http://www.w3.org/2000/svg" xmlns:xlink="http://www.w3.org/1999/xlink" version="1.1"><rect x="0" y="0" width="900" height="600" fill="#f4e1ff"></rect><defs><linearGradient id="grad1_0" x1="33.3%" y1="0%" x2="100%" y2="100%"><stop offset="20%" stop-color="#f4e1ff" stop-opacity="1"></stop><stop offset="80%" stop-color="#f4e1ff" stop-opacity="1"></stop></linearGradient></defs><defs><linearGradient id="grad2_0" x1="0%" y1="0%" x2="66.7%" y2="100%"><stop offset="20%" stop-color="#f4e1ff" stop-opacity="1"></stop><stop offset="80%" stop-color="#f4e1ff" stop-opacity="1"></stop></linearGradient></defs><g transform="translate(900, 0)"><path d="M0 486.7C-67.4 483.5 -134.8 480.2 -186.3 449.7C-237.7 419.2 -273.2 361.5 -314 314C-354.7 266.4 -400.8 229 -430.5 178.3C-460.2 127.7 -473.5 63.8 -486.7 0L0 0Z" fill="#d4b6f9"></path></g><g transform="translate(0, 600)"><path d="M0 -486.7C79 -495.1 157.9 -503.4 186.3 -449.7C214.6 -396 192.3 -280.4 232.6 -232.6C273 -184.9 375.9 -205 428.7 -177.6C481.5 -150.1 484.1 -75.1 486.7 0L0 0Z" fill="#d4b6f9"></path></g></svg>